<svg width="320" height="280" viewBox="0 0 320 280" fill="none" xmlns="http://www.w3.org/2000/svg">
<path fill-rule="evenodd" clip-rule="evenodd" d="M151.079 46.6965C156.92 44.526 163.347 44.526 169.189 46.6965L271.346 84.652C272.397 84.9243 273.41 85.3696 274.342 85.9837C277.148 87.8342 278.837 90.9707 278.837 94.3321V209.583C278.837 220.112 272.487 229.601 262.755 233.617L163.949 274.394C161.505 275.403 158.762 275.403 156.319 274.394L57.5126 233.617C47.7806 229.601 41.4313 220.112 41.4313 209.583V94.3321C41.4313 90.9707 43.1201 87.8342 45.9264 85.9837C46.8577 85.3696 47.8709 84.9244 48.9218 84.652L151.079 46.6965ZM61.4313 109.498V209.583C61.4313 212.013 62.8965 214.203 65.1424 215.13L150.134 250.205V147.513L61.4313 109.498ZM170.134 147.513V250.205L255.126 215.13C257.371 214.203 258.837 212.013 258.837 209.583V109.498L170.134 147.513ZM241.837 95.0239L209.228 82.9083L129.695 116.994L160.134 130.039L241.837 95.0239ZM104.309 106.114L78.4312 95.0239L158.044 65.4443C159.392 64.9434 160.876 64.9434 162.224 65.4443L182.032 72.8041L104.309 106.114Z" fill="black"/>
</svg>
