<svg id="Layer_1" data-name="Layer 1" xmlns="http://www.w3.org/2000/svg" viewBox="0 0 192 192"><defs><style>.cls-1{fill:#323232;}</style></defs><path class="cls-1" d="M104.93,3a24.64,24.64,0,0,1,8.72,4.09,24.37,24.37,0,0,1,6.6,7.65,36.63,36.63,0,0,1,3.54,8.6,40.46,40.46,0,0,1,1.2,8.43c.06.79.16,2.58.05,8-.17,8.36-.39,10.15,0,14.5a27.5,27.5,0,0,0,7.21,16,130.32,130.32,0,0,1,11.53,14.25,79.4,79.4,0,0,1,11.48,26.19,65.77,65.77,0,0,1,1.09,8.07A79.06,79.06,0,0,1,157,127c0,2.31-.44,4.63-.67,7a6.09,6.09,0,0,0,1,4.44c1.64,2.24,2.26,4.95,2.79,7.6a11.26,11.26,0,0,0,2.83,5.42,16.77,16.77,0,0,1,2.75,4.19c2.27,5.08-.58,12.38-6.31,15a46.71,46.71,0,0,0-7.6,3.85,89,89,0,0,0-7.63,6.68c-3.5,3.14-4.47,5-7.57,6.74a17.21,17.21,0,0,1-4,1.67,16,16,0,0,1-6.86.3,12.35,12.35,0,0,1-5.07-1.9,12.14,12.14,0,0,1-4-4.71,4,4,0,0,0-3.23-2.31,55.26,55.26,0,0,0-11.52-1.49c-4.05,0-8.11-.07-12.16.09a46.4,46.4,0,0,0-7.31.93,4.7,4.7,0,0,0-3.05,2.2c-3.42,5.27-9.63,7.89-16.76,5.48-3.18-1.07-6.38-2.13-9.49-3.4a37.27,37.27,0,0,0-15.53-2.86c-2.34.07-4.64.1-6.85-1.11a9.52,9.52,0,0,1-4.89-11.12,9.52,9.52,0,0,1,.46-2.27c2-3.57,1.45-7.22.76-11-.95-5.23.73-8.76,5.24-11,3.5-1.75,7-3.5,9.69-6.43a2.37,2.37,0,0,0,.65-2.68c-1.56-5.36-1.22-10.9-.73-16.31a52.38,52.38,0,0,1,3.58-13.84A92.18,92.18,0,0,1,59.62,81.94c4-5,7.58-10.28,9-16.65.81-3.64.89-7.41.86-15,0-10-.92-12.94-.12-21.15a33,33,0,0,1,2.53-10.75,30.27,30.27,0,0,1,4.93-7.67A24.66,24.66,0,0,1,82.53,6,28.39,28.39,0,0,1,94.9,2.05,28.86,28.86,0,0,1,104.93,3ZM75.42,65.4c0,1.92.1,3.21,0,4.49-.27,3-.48,6-1,8.88a37.32,37.32,0,0,1-5.87,13.85A64,64,0,0,0,60.38,111c-1.29,4.64-1.29,9.45-2.63,14.58-1.72-5.23-2.89-10.14-2.52-15.19.36-4.88,1.26-9.73,2-15.42-1.36,2.74-2.44,4.68-3.31,6.7-2.48,5.76-3.94,11.6-3,18a19,19,0,0,0,8.19,13.55c4.47,3.13,9,6.2,13.37,9.46,2.51,1.86,4.85,4,6.16,7s.91,5.85-1.56,8.16a26.63,26.63,0,0,1-2.26,1.72c1.86,3.12,3.6,6.12,5.43,9.07a4.68,4.68,0,0,0,1.65,1.54c4.59,2.51,9.63,2.88,14.71,2.9a27.66,27.66,0,0,0,3.43-.59,43.07,43.07,0,0,0,14.79-4.43,3.93,3.93,0,0,0,1.77-1.86c1.91-5.23,3.88-10.41,3.78-16.17a77.29,77.29,0,0,1,.8-11.66c.4-3,1.33-6.05,4.4-7.36a4,4,0,0,0,2.7-2.83c1-3.23,3.14-4.67,6.54-4.35a18,18,0,0,1,13.87,8.3c.5.75.9,1.57,1.46,2.27.17.22.71.21,1.07.16.15,0,.38-.4.37-.61a10.1,10.1,0,0,0-.31-2.27,16.87,16.87,0,0,0-8-9.71,3.06,3.06,0,0,1-1.81-3,53,53,0,0,0-.75-10.88c-1-5-3.39-11.1-6.39-14.84,1.23,8.69,3.77,17,1.17,25.63a89.46,89.46,0,0,0-6.92-18.56c-5.72-11.76-11.86-23.35-15.1-36.4a68.2,68.2,0,0,0-10,5.49,57.19,57.19,0,0,1-5.66,3.43A11.92,11.92,0,0,1,84.63,72ZM66.16,183.79a9.66,9.66,0,0,0,9-14.48,31.37,31.37,0,0,0-3.23-4.84,71,71,0,0,1-10.34-16,44.75,44.75,0,0,0-4.07-6.64c-4.61-6.36-7.79-4.31-10.87-.52a25.36,25.36,0,0,1-10.16,7.57c-3.55,1.47-4.28,2.73-4.19,6.55a8.78,8.78,0,0,0,.17,2.73c1.35,3.71.29,7.14-1.05,10.55-1.43,3.66-.57,6.1,3,7.56a11.33,11.33,0,0,0,4.53.78,35.1,35.1,0,0,1,13.43,1.76c3.16,1.14,6.23,2.52,9.38,3.7C63.17,183.07,64.68,183.38,66.16,183.79Zm54.07-9c0,.4,0,.79,0,1.18.19,6,5.31,9.76,11.17,8.46a11.82,11.82,0,0,0,5.93-3.49c2.22-2.21,4.43-4.44,6.6-6.7a29.59,29.59,0,0,1,8.88-6.27c1.29-.62,2.65-1.12,3.87-1.86,5.07-3.08,5.66-7.06,1.83-11.59a17.51,17.51,0,0,1-3.67-7.22c-.3-1.25-.7-2.48-1.06-3.72-.84-2.8-4.62-4.58-7.24-2.32-2.38,2-5.29,2.66-8.19,3.28a8.29,8.29,0,0,1-8.78-5.37c-.24-.73-.47-1.47-.75-2.19-.08-.21-.36-.51-.49-.49a1.48,1.48,0,0,0-.94.46,4.48,4.48,0,0,0-.83,1.75,49.23,49.23,0,0,0-.8,6.92,51.28,51.28,0,0,1-1.63,14.24c-1,3.55-1.75,4.26-2.83,8.86A55,55,0,0,0,120.23,174.76Zm-28.16-129a14.53,14.53,0,0,0-3.34,1.08c-4.08,2.52-8.12,5.1-12.09,7.8a3.33,3.33,0,0,0-.55,4.85,8.11,8.11,0,0,0,1.66,1.65c3.38,2.41,6.8,4.78,10.21,7.17a6.8,6.8,0,0,0,7.36.47c1.17-.58,2.34-1.15,3.46-1.82,3.56-2.13,7.09-4.32,10.65-6.46,1.47-.88,3.11-1.61,3-3.69s-1.77-2.75-3.28-3.48q-7-3.36-14.11-6.61A26.22,26.22,0,0,0,92.07,45.78Zm.8-4.84c.89.31,1.74.59,2.57.91,1.19.47,1.88.33,2.22-1.13a13.37,13.37,0,0,1,1.55-3.56c.74-1.28,1.78-2.37,3.45-2s2.89.89,3.48,2.68a10,10,0,0,1,.1,7.2c-.48,1.19.17,2,1.25,2.48a1.79,1.79,0,0,0,2.44-1.28,22.1,22.1,0,0,0,.76-10.39c-.4-2.1-1-4.35-2.89-5.82s-3.53-2.29-6-1.56a11,11,0,0,0-6.1,4.46C94,35.34,93.63,38.13,92.87,40.94Zm-19-1.14A15.65,15.65,0,0,0,75.31,48c.3.59.54,1.34,1.34,1a2.3,2.3,0,0,0,1.21-1.36,5.26,5.26,0,0,0-.37-2.24,7.53,7.53,0,0,1,.34-5.65c.52-1.08,1.25-1.78,2.39-1.53a3.55,3.55,0,0,1,2.13,1.33,12.7,12.7,0,0,1,1,3.28c.23.85.73,1,1.42.6s1.79-.61,1.7-1.85c-.28-3.86-1.2-7.43-4.52-9.86a4.92,4.92,0,0,0-6.94,1.67A11,11,0,0,0,73.83,39.8Z"/><path class="cls-1" d="M90.55,65A24.86,24.86,0,0,1,86,63.36a64.88,64.88,0,0,1-6.69-4.64,1.77,1.77,0,0,1-.18-1.65,1.17,1.17,0,0,1,2-.33c1,.8,2.1,1.54,3.1,2.37a10.72,10.72,0,0,0,12.34,1.48c2.23-1.06,4.33-2.36,6.5-3.53a15.74,15.74,0,0,1,2.81-1.35c.48-.15,1.55.17,1.6.43.14.68.09,1.89-.29,2.09q-6.39,3.27-12.93,6.22C93.34,64.86,92.21,64.78,90.55,65Z"/></svg>