<svg id="Layer_1" data-name="Layer 1" xmlns="http://www.w3.org/2000/svg" viewBox="0 0 192 192"><path d="M178.72,13c.09.05.29-.14.28.14s0,.32,0,.48V96l-.83,0H89.23V25.54l2-.28,9.44-1.32,9.45-1.3,9.58-1.34,9.38-1.3,9.51-1.32,9.38-1.3,9.44-1.32,9.44-1.3c3.22-.45,6.44-.89,9.65-1.35C177.25,13.3,178,13.14,178.72,13Z"/><path d="M179,102.92V179h-.69a1.15,1.15,0,0,0-.25-.12l-8.14-1.13-9.44-1.3L151,175.13l-9.37-1.3L132,172.5l-9.37-1.3-9.45-1.32-10.4-1.44L92.1,167l-2.83-.41c-.16-1.13-.1-63.09.06-63.6H178Z"/><path d="M13,36.25l7.67-1L29.37,34l9.72-1.32,8.7-1.18,9.72-1.32,8.63-1.17,8.7-1.18,7.31-1c.16.51.2,68.23,0,69.11-.22,0-.44,0-.67,0h-68L13,96Z"/><path d="M13,102.92c.32,0,.64,0,1,0H82.12l.08.08,0,0a2.66,2.66,0,0,1,0,.28q0,30.77,0,61.55a1.17,1.17,0,0,1-.06.24,3.38,3.38,0,0,1-.45,0L71.14,163.7l-9.65-1.3-9.73-1.33-9.65-1.3-9.66-1.31-8.7-1.17L14,156c-.34-.05-.69-.05-1-.07Z"/></svg>