<svg width="320" height="280" viewBox="0 0 320 280" xmlns="http://www.w3.org/2000/svg">
<path fill-rule="evenodd" clip-rule="evenodd" d="M123.672 25.8701L33.3183 60.0766L53.8614 82.575L143.1 48.2532L123.672 25.8701ZM145.197 68.875L77.7586 94.8122L145.197 123.783L145.197 68.875ZM38.1391 95.0172L12.5887 67.0349C5.91997 59.7314 8.72105 48.0035 17.9704 44.5018L120.503 5.6843C125.989 3.60749 132.188 5.17061 136.033 9.60034L160 37.2121L183.967 9.60034C187.812 5.17062 194.011 3.6075 199.497 5.68431L302.049 44.5093C311.28 48.0039 314.093 59.6967 307.463 67.0076L281.948 95.1403L303.738 125.88C308.811 133.036 306.129 143.041 298.156 146.7L279.137 155.43V210.206C279.137 220.726 272.797 230.209 263.076 234.231L163.823 275.289C161.375 276.302 158.625 276.302 156.177 275.289L56.9244 234.231C47.203 230.209 40.8631 220.726 40.8631 210.206V155.43L21.8436 146.7C13.8715 143.041 11.1892 133.036 16.2618 125.88L38.1391 95.0172ZM54.3534 106.727L36.7635 131.542L119.522 169.526L142.926 144.601L54.3534 106.727ZM150 166.285L131.148 186.362C127.03 190.748 120.57 192.013 115.102 189.503L60.8631 164.609V210.206C60.8631 212.633 62.3261 214.822 64.5696 215.75L150 251.09V166.285ZM170 251.09L255.43 215.75C257.674 214.822 259.137 212.633 259.137 210.206V164.609L204.898 189.503C199.43 192.013 192.97 190.748 188.852 186.362L170 166.285V251.09ZM177.074 144.601L200.478 169.526L283.236 131.542L265.647 106.727L177.074 144.601ZM266.534 82.3658L286.731 60.0955L196.328 25.8701L176.93 48.2181L266.534 82.3658ZM165.197 65.1497L165.197 127.909L242.613 94.6527L165.197 65.1497Z" fill="#e0e0e0"/>
</svg>
